<mxfile host="65bd71144e">
    <diagram id="Bm5TEGq5vWVQ35UQSgmL" name="ページ1">
        <mxGraphModel dx="814" dy="1357" grid="1" gridSize="10" guides="1" tooltips="1" connect="1" arrows="1" fold="1" page="1" pageScale="1" pageWidth="1654" pageHeight="1169" math="0" shadow="0">
            <root>
                <mxCell id="0"/>
                <mxCell id="1" parent="0"/>
                <mxCell id="2" value="" style="rounded=0;whiteSpace=wrap;html=1;" parent="1" vertex="1">
                    <mxGeometry x="200" y="240" width="1080" height="680" as="geometry"/>
                </mxCell>
                <mxCell id="4" value="" style="rounded=0;whiteSpace=wrap;html=1;" parent="1" vertex="1">
                    <mxGeometry x="210" y="880" width="1070" height="40" as="geometry"/>
                </mxCell>
                <mxCell id="5" value="&lt;font style=&quot;font-size: 18px&quot;&gt;1&lt;/font&gt;" style="rounded=0;whiteSpace=wrap;html=1;strokeColor=none;" parent="1" vertex="1">
                    <mxGeometry x="200" y="240" width="40" height="30" as="geometry"/>
                </mxCell>
                <mxCell id="6" value="&lt;font style=&quot;font-size: 18px&quot;&gt;2&lt;/font&gt;" style="rounded=0;whiteSpace=wrap;html=1;strokeColor=none;" parent="1" vertex="1">
                    <mxGeometry x="200" y="270" width="40" height="30" as="geometry"/>
                </mxCell>
                <mxCell id="7" value="&lt;font style=&quot;font-size: 18px&quot;&gt;3&lt;/font&gt;" style="rounded=0;whiteSpace=wrap;html=1;strokeColor=none;" parent="1" vertex="1">
                    <mxGeometry x="200" y="300" width="40" height="30" as="geometry"/>
                </mxCell>
                <mxCell id="8" value="4" style="rounded=0;whiteSpace=wrap;html=1;strokeColor=none;fontSize=18;" parent="1" vertex="1">
                    <mxGeometry x="200" y="330" width="40" height="30" as="geometry"/>
                </mxCell>
                <mxCell id="9" value="5" style="rounded=0;whiteSpace=wrap;html=1;strokeColor=none;fontSize=18;" parent="1" vertex="1">
                    <mxGeometry x="200" y="360" width="40" height="30" as="geometry"/>
                </mxCell>
                <mxCell id="10" value="6" style="rounded=0;whiteSpace=wrap;html=1;strokeColor=none;fontSize=18;" parent="1" vertex="1">
                    <mxGeometry x="200" y="390" width="40" height="30" as="geometry"/>
                </mxCell>
                <mxCell id="11" value="7" style="rounded=0;whiteSpace=wrap;html=1;strokeColor=none;fontSize=18;" parent="1" vertex="1">
                    <mxGeometry x="200" y="420" width="40" height="30" as="geometry"/>
                </mxCell>
                <mxCell id="12" value="8" style="rounded=0;whiteSpace=wrap;html=1;strokeColor=none;fontSize=18;" parent="1" vertex="1">
                    <mxGeometry x="200" y="450" width="40" height="30" as="geometry"/>
                </mxCell>
                <mxCell id="13" value="9" style="rounded=0;whiteSpace=wrap;html=1;strokeColor=none;fontSize=18;" parent="1" vertex="1">
                    <mxGeometry x="200" y="480" width="40" height="30" as="geometry"/>
                </mxCell>
                <mxCell id="14" value="10" style="rounded=0;whiteSpace=wrap;html=1;strokeColor=none;fontSize=18;" parent="1" vertex="1">
                    <mxGeometry x="200" y="510" width="40" height="30" as="geometry"/>
                </mxCell>
                <mxCell id="15" value="11" style="rounded=0;whiteSpace=wrap;html=1;strokeColor=none;fontSize=18;" parent="1" vertex="1">
                    <mxGeometry x="200" y="540" width="40" height="30" as="geometry"/>
                </mxCell>
                <mxCell id="16" value="12" style="rounded=0;whiteSpace=wrap;html=1;strokeColor=none;fontSize=18;" parent="1" vertex="1">
                    <mxGeometry x="200" y="570" width="40" height="30" as="geometry"/>
                </mxCell>
                <mxCell id="17" value="13" style="rounded=0;whiteSpace=wrap;html=1;strokeColor=none;fontSize=18;" parent="1" vertex="1">
                    <mxGeometry x="200" y="600" width="40" height="30" as="geometry"/>
                </mxCell>
                <mxCell id="18" value="14" style="rounded=0;whiteSpace=wrap;html=1;strokeColor=none;fontSize=18;" parent="1" vertex="1">
                    <mxGeometry x="200" y="630" width="40" height="30" as="geometry"/>
                </mxCell>
                <mxCell id="19" value="15" style="rounded=0;whiteSpace=wrap;html=1;strokeColor=none;fontSize=18;" parent="1" vertex="1">
                    <mxGeometry x="200" y="660" width="40" height="30" as="geometry"/>
                </mxCell>
                <mxCell id="20" value="" style="rounded=0;whiteSpace=wrap;html=1;strokeColor=none;fontSize=18;" parent="1" vertex="1">
                    <mxGeometry x="200" y="690" width="40" height="30" as="geometry"/>
                </mxCell>
                <mxCell id="21" value="" style="rounded=0;whiteSpace=wrap;html=1;strokeColor=none;fontSize=18;" parent="1" vertex="1">
                    <mxGeometry x="200" y="720" width="40" height="30" as="geometry"/>
                </mxCell>
                <mxCell id="22" value="" style="rounded=0;whiteSpace=wrap;html=1;strokeColor=none;fontSize=18;" parent="1" vertex="1">
                    <mxGeometry x="200" y="750" width="40" height="30" as="geometry"/>
                </mxCell>
                <mxCell id="23" value="" style="rounded=0;whiteSpace=wrap;html=1;strokeColor=none;fontSize=18;" parent="1" vertex="1">
                    <mxGeometry x="200" y="780" width="40" height="30" as="geometry"/>
                </mxCell>
                <mxCell id="24" value="" style="rounded=0;whiteSpace=wrap;html=1;strokeColor=none;fontSize=18;" parent="1" vertex="1">
                    <mxGeometry x="200" y="840" width="40" height="30" as="geometry"/>
                </mxCell>
                <mxCell id="25" value="" style="rounded=0;whiteSpace=wrap;html=1;strokeColor=none;fontSize=18;" parent="1" vertex="1">
                    <mxGeometry x="200" y="810" width="40" height="30" as="geometry"/>
                </mxCell>
                <mxCell id="29" value="&lt;div style=&quot;text-align: justify&quot;&gt;&lt;/div&gt;" style="rounded=0;whiteSpace=wrap;html=1;align=left;" parent="1" vertex="1">
                    <mxGeometry x="240" y="240" width="1040" height="640" as="geometry"/>
                </mxCell>
                <mxCell id="32" value="&lt;font style=&quot;font-size: 18px&quot;&gt;- 見出し&lt;/font&gt;" style="rounded=0;whiteSpace=wrap;html=1;align=left;strokeColor=none;" parent="1" vertex="1">
                    <mxGeometry x="240" y="240" width="1040" height="30" as="geometry"/>
                </mxCell>
                <mxCell id="33" value="&lt;span style=&quot;font-size: 18px&quot;&gt;&amp;nbsp; &amp;nbsp; - 見出し&lt;/span&gt;" style="rounded=0;whiteSpace=wrap;html=1;align=left;strokeColor=none;" parent="1" vertex="1">
                    <mxGeometry x="240" y="270" width="1040" height="30" as="geometry"/>
                </mxCell>
                <mxCell id="34" value="&lt;font style=&quot;font-size: 10px&quot;&gt;データベース表示&lt;/font&gt;" style="rounded=0;whiteSpace=wrap;html=1;fontSize=18;" parent="1" vertex="1">
                    <mxGeometry x="200" y="880" width="50" height="40" as="geometry"/>
                </mxCell>
                <mxCell id="40" value="⚙" style="rounded=0;whiteSpace=wrap;html=1;fontSize=18;" parent="1" vertex="1">
                    <mxGeometry x="1230" y="880" width="50" height="40" as="geometry"/>
                </mxCell>
                <mxCell id="41" value="&lt;font style=&quot;font-size: 10px&quot;&gt;グループ表示&lt;/font&gt;" style="rounded=0;whiteSpace=wrap;html=1;fontSize=18;" vertex="1" parent="1">
                    <mxGeometry x="250" y="880" width="50" height="40" as="geometry"/>
                </mxCell>
                <mxCell id="42" value="&lt;font style=&quot;font-size: 10px&quot;&gt;グループ表示&lt;/font&gt;" style="rounded=0;whiteSpace=wrap;html=1;fontSize=18;" vertex="1" parent="1">
                    <mxGeometry x="300" y="880" width="50" height="40" as="geometry"/>
                </mxCell>
            </root>
        </mxGraphModel>
    </diagram>
</mxfile>